<svg width="16" height="15" viewBox="0 0 16 15" fill="none" xmlns="http://www.w3.org/2000/svg">
<path d="M12.8971 14.9998H2.26907C1.79882 14.9985 1.34827 14.8108 1.01613 14.4779C0.683983 14.145 0.497333 13.694 0.49707 13.2238V2.59579C0.49839 2.12623 0.685506 1.67629 1.01753 1.34426C1.34956 1.01223 1.79951 0.825111 2.26907 0.823792H5.81307C5.93129 0.816643 6.04967 0.834662 6.16041 0.876659C6.27114 0.918656 6.3717 0.983674 6.45545 1.06742C6.53919 1.15116 6.60421 1.25172 6.6462 1.36246C6.6882 1.47319 6.70622 1.59158 6.69907 1.70979C6.70622 1.82801 6.6882 1.94639 6.6462 2.05713C6.60421 2.16786 6.53919 2.26842 6.45545 2.35217C6.3717 2.43591 6.27114 2.50093 6.16041 2.54293C6.04967 2.58492 5.93129 2.60294 5.81307 2.59579H2.26907V13.2238H12.8971V9.68379C12.8971 9.44881 12.9904 9.22345 13.1566 9.0573C13.3227 8.89114 13.5481 8.79779 13.7831 8.79779C14.0181 8.79779 14.2434 8.89114 14.4096 9.0573C14.5757 9.22345 14.6691 9.44881 14.6691 9.68379V13.2238C14.6688 13.694 14.4822 14.145 14.15 14.4779C13.8179 14.8108 13.3673 14.9985 12.8971 14.9998Z" fill="#222426"/>
<path d="M14.6732 5.7645C14.5632 5.77121 14.4531 5.7545 14.3501 5.71547C14.247 5.67644 14.1535 5.61597 14.0756 5.53807C13.9977 5.46017 13.9372 5.36662 13.8982 5.2636C13.8592 5.16059 13.8424 5.05045 13.8492 4.9405V1.64649H10.5562C10.4463 1.6532 10.3362 1.63651 10.2333 1.59754C10.1304 1.55857 10.0369 1.49819 9.95898 1.4204C9.8811 1.34262 9.82061 1.24919 9.78151 1.14629C9.74241 1.0434 9.72559 0.933373 9.73216 0.823495C9.72544 0.713536 9.74215 0.603403 9.78119 0.500386C9.82022 0.397369 9.88069 0.303816 9.95858 0.225918C10.0365 0.14802 10.13 0.0875536 10.2331 0.0485202C10.3361 0.00948685 10.4462 -0.00722348 10.5562 -0.000504839H14.6742C14.7841 -0.00722348 14.8943 0.00948685 14.9973 0.0485202C15.1003 0.0875536 15.1938 0.14802 15.2717 0.225918C15.3496 0.303816 15.4101 0.397369 15.4491 0.500386C15.4882 0.603403 15.5049 0.713536 15.4982 0.823495V4.9405C15.5049 5.05054 15.4882 5.16077 15.4491 5.26386C15.41 5.36695 15.3494 5.46055 15.2714 5.53847C15.1934 5.61638 15.0997 5.67683 14.9966 5.71579C14.8934 5.75476 14.7832 5.77136 14.6732 5.7645Z" fill="#222426"/>
<path d="M8.90899 7.41217C8.80083 7.41511 8.69331 7.39455 8.59387 7.35191C8.49443 7.30926 8.40542 7.24555 8.33299 7.16517C8.25541 7.09053 8.19369 7.001 8.15153 6.90194C8.10938 6.80288 8.08765 6.69633 8.08765 6.58867C8.08765 6.48102 8.10938 6.37447 8.15153 6.27541C8.19369 6.17635 8.25541 6.08681 8.33299 6.01217L14.098 0.247173C14.2515 0.0974431 14.4579 0.0142549 14.6723 0.0156421C14.8867 0.0170292 15.092 0.10288 15.2436 0.254583C15.3951 0.406286 15.4808 0.611616 15.482 0.82606C15.4832 1.0405 15.3999 1.24678 15.25 1.40017L9.48499 7.16517C9.41255 7.24555 9.32355 7.30926 9.2241 7.35191C9.12466 7.39455 9.01715 7.41511 8.90899 7.41217Z" fill="#222426"/>
</svg>
